<svg width="60" height="60" viewBox="0 0 60 60" fill="none" xmlns="http://www.w3.org/2000/svg">
<path fill-rule="evenodd" clip-rule="evenodd" d="M30 57.6419C46.5685 57.6419 60 44.7383 60 28.821C60 12.9036 46.5685 0 30 0C13.4315 0 0 12.9036 0 28.821C0 36.5982 3.20653 43.656 8.41879 48.8407L8.29296 55.9763C8.25264 58.2629 10.7874 59.7702 12.8362 58.6778L18.726 55.5376C22.2066 56.8945 26.0125 57.6419 30 57.6419Z" fill="url(#paint0_radial_109_13)"/>
<path d="M40.2798 13.9199L37.2588 19.1278C35.3277 22.4569 31.5511 24.2382 27.7549 23.6105L27.4812 23.5653C22.2357 22.698 17.2937 26.2249 16.3917 31.4796L14.1192 44.7172C13.9176 45.8918 14.5751 47.0495 15.6862 47.4761C16.8107 47.9079 18.0771 47.4675 18.6891 46.4318L22.5316 39.9298C24.5246 36.5573 28.417 34.8165 32.2595 35.5793C37.6356 36.6465 42.7313 32.8305 43.2403 27.3563L44.3654 15.2561C44.4574 14.2665 43.879 13.3337 42.9529 12.978C41.9489 12.5926 40.8187 12.9908 40.2798 13.9199Z" fill="#D9D9D9"/>
<defs>
<radialGradient id="paint0_radial_109_13" cx="0" cy="0" r="1" gradientUnits="userSpaceOnUse" gradientTransform="translate(41.7391 20.1016) rotate(123.817) scale(31.6394 133.066)">
<stop offset="0.328125" stop-color="#05D801" stop-opacity="0.92"/>
<stop offset="1" stop-color="#0858CE"/>
</radialGradient>
</defs>
</svg>
